<mxfile host="Electron" modified="2023-12-29T07:23:24.394Z" agent="Mozilla/5.0 (Windows NT 10.0; Win64; x64) AppleWebKit/537.36 (KHTML, like Gecko) draw.io/22.1.15 Chrome/120.0.6099.109 Electron/28.1.0 Safari/537.36" etag="AVAelXnm0suCLZCxIITP" version="22.1.15" type="device">
  <diagram name="Page-1" id="KIA4AKGQgrIHavXj8jOp">
    <mxGraphModel dx="977" dy="671" grid="1" gridSize="10" guides="1" tooltips="1" connect="1" arrows="1" fold="1" page="1" pageScale="1" pageWidth="850" pageHeight="1100" math="0" shadow="0">
      <root>
        <mxCell id="0" />
        <mxCell id="1" parent="0" />
        <mxCell id="7c4hS-y4pkG3AZ0TfTNu-2" value="" style="sketch=0;aspect=fixed;pointerEvents=1;shadow=0;dashed=0;html=1;strokeColor=none;labelPosition=center;verticalLabelPosition=bottom;verticalAlign=top;align=center;fillColor=#0078d4;shape=mxgraph.azure.code_file" parent="1" vertex="1">
          <mxGeometry x="401" y="99" width="47" height="50" as="geometry" />
        </mxCell>
        <mxCell id="yrhHN7JMUC928CM5Zj_R-9" style="edgeStyle=orthogonalEdgeStyle;rounded=0;orthogonalLoop=1;jettySize=auto;html=1;" parent="1" source="yrhHN7JMUC928CM5Zj_R-1" target="yrhHN7JMUC928CM5Zj_R-2" edge="1">
          <mxGeometry relative="1" as="geometry" />
        </mxCell>
        <mxCell id="yrhHN7JMUC928CM5Zj_R-1" value="源代码&lt;br&gt;Source Code" style="sketch=0;outlineConnect=0;fontColor=#232F3E;gradientColor=none;fillColor=#0078d4;strokeColor=none;dashed=0;verticalLabelPosition=bottom;verticalAlign=top;align=center;html=1;fontSize=12;fontStyle=0;aspect=fixed;pointerEvents=1;shape=mxgraph.aws4.source_code;" parent="1" vertex="1">
          <mxGeometry x="100" y="219" width="58" height="79.37" as="geometry" />
        </mxCell>
        <mxCell id="yrhHN7JMUC928CM5Zj_R-14" value="" style="edgeStyle=orthogonalEdgeStyle;rounded=0;orthogonalLoop=1;jettySize=auto;html=1;" parent="1" source="yrhHN7JMUC928CM5Zj_R-2" target="yrhHN7JMUC928CM5Zj_R-13" edge="1">
          <mxGeometry relative="1" as="geometry" />
        </mxCell>
        <mxCell id="yrhHN7JMUC928CM5Zj_R-2" value="编译器&lt;br&gt;Compiler" style="sketch=0;outlineConnect=0;fontColor=#000000;fillColor=#f0a30a;strokeColor=#BD7000;dashed=0;verticalLabelPosition=bottom;verticalAlign=top;align=center;html=1;fontSize=12;fontStyle=0;aspect=fixed;shape=mxgraph.aws4.mainframe_modernization_compiler;" parent="1" vertex="1">
          <mxGeometry x="195" y="220" width="78" height="78" as="geometry" />
        </mxCell>
        <mxCell id="yrhHN7JMUC928CM5Zj_R-11" value="可执行文件、库文件，……&lt;br&gt;Executable,&lt;br&gt;Static library,&lt;br&gt;Dynamic library,&lt;br&gt;... ..." style="verticalLabelPosition=bottom;html=1;verticalAlign=top;strokeWidth=1;align=center;outlineConnect=0;dashed=0;outlineConnect=0;shape=mxgraph.aws3d.application;fillColor=#4286c5;strokeColor=#57A2D8;aspect=fixed;" parent="1" vertex="1">
          <mxGeometry x="550" y="184.29" width="62" height="68.8" as="geometry" />
        </mxCell>
        <mxCell id="yrhHN7JMUC928CM5Zj_R-39" style="edgeStyle=orthogonalEdgeStyle;rounded=0;orthogonalLoop=1;jettySize=auto;html=1;" parent="1" source="yrhHN7JMUC928CM5Zj_R-13" target="yrhHN7JMUC928CM5Zj_R-35" edge="1">
          <mxGeometry relative="1" as="geometry" />
        </mxCell>
        <mxCell id="yrhHN7JMUC928CM5Zj_R-13" value="目标文件&lt;br&gt;Ojbect File" style="image;aspect=fixed;html=1;points=[];align=center;fontSize=12;image=img/lib/azure2/general/File.svg;imageBackground=default;" parent="1" vertex="1">
          <mxGeometry x="310" y="219" width="64.93" height="80" as="geometry" />
        </mxCell>
        <mxCell id="yrhHN7JMUC928CM5Zj_R-71" value="" style="edgeStyle=orthogonalEdgeStyle;rounded=0;orthogonalLoop=1;jettySize=auto;html=1;" parent="1" source="yrhHN7JMUC928CM5Zj_R-35" target="yrhHN7JMUC928CM5Zj_R-11" edge="1">
          <mxGeometry relative="1" as="geometry" />
        </mxCell>
        <mxCell id="yrhHN7JMUC928CM5Zj_R-35" value="链接器&lt;br&gt;Linker" style="html=1;verticalLabelPosition=bottom;align=center;labelBackgroundColor=#ffffff;verticalAlign=top;strokeWidth=2;strokeColor=#C73500;shadow=0;dashed=0;shape=mxgraph.ios7.icons.link;fillColor=#fa6800;fontColor=#000000;" parent="1" vertex="1">
          <mxGeometry x="410" y="224" width="70" height="70" as="geometry" />
        </mxCell>
        <mxCell id="7c4hS-y4pkG3AZ0TfTNu-1" value="" style="sketch=0;aspect=fixed;pointerEvents=1;shadow=0;dashed=0;html=1;strokeColor=none;labelPosition=center;verticalLabelPosition=bottom;verticalAlign=top;align=center;fillColor=#0078d4;shape=mxgraph.mscae.enterprise.code_file" parent="1" vertex="1">
          <mxGeometry x="351" y="99" width="49" height="50" as="geometry" />
        </mxCell>
        <mxCell id="7c4hS-y4pkG3AZ0TfTNu-3" value="" style="sketch=0;aspect=fixed;pointerEvents=1;shadow=0;dashed=0;html=1;strokeColor=none;labelPosition=center;verticalLabelPosition=bottom;verticalAlign=top;align=center;fillColor=#0078d4;shape=mxgraph.azure.file" parent="1" vertex="1">
          <mxGeometry x="371" y="139" width="47" height="50" as="geometry" />
        </mxCell>
        <mxCell id="7c4hS-y4pkG3AZ0TfTNu-4" value="" style="sketch=0;aspect=fixed;pointerEvents=1;shadow=0;dashed=0;html=1;strokeColor=none;labelPosition=center;verticalLabelPosition=bottom;verticalAlign=top;align=center;fillColor=#0078d4;shape=mxgraph.azure.powershell_file;direction=south;" parent="1" vertex="1">
          <mxGeometry x="361.5" y="120.5" width="50" height="47" as="geometry" />
        </mxCell>
        <mxCell id="7c4hS-y4pkG3AZ0TfTNu-5" value="" style="sketch=0;aspect=fixed;pointerEvents=1;shadow=0;dashed=0;html=1;strokeColor=none;labelPosition=center;verticalLabelPosition=bottom;verticalAlign=top;align=center;shape=mxgraph.azure.rdp_remoting_file;fillColor=#0078d4;" parent="1" vertex="1">
          <mxGeometry x="411" y="119" width="48" height="50" as="geometry" />
        </mxCell>
        <mxCell id="7c4hS-y4pkG3AZ0TfTNu-9" value="" style="edgeStyle=orthogonalEdgeStyle;rounded=0;orthogonalLoop=1;jettySize=auto;html=1;" parent="1" source="7c4hS-y4pkG3AZ0TfTNu-6" target="yrhHN7JMUC928CM5Zj_R-35" edge="1">
          <mxGeometry relative="1" as="geometry" />
        </mxCell>
        <mxCell id="7c4hS-y4pkG3AZ0TfTNu-6" value="" style="sketch=0;aspect=fixed;pointerEvents=1;shadow=0;dashed=0;html=1;strokeColor=none;labelPosition=center;verticalLabelPosition=bottom;verticalAlign=top;align=center;fillColor=#0078d4;shape=mxgraph.azure.script_file" parent="1" vertex="1">
          <mxGeometry x="421" y="139" width="47" height="50" as="geometry" />
        </mxCell>
      </root>
    </mxGraphModel>
  </diagram>
</mxfile>
